<mxfile host="app.diagrams.net" modified="2024-03-30T21:26:55.129Z" agent="Mozilla/5.0 (Windows NT 10.0; Win64; x64) AppleWebKit/537.36 (KHTML, like Gecko) Chrome/123.0.0.0 Safari/537.36" etag="nNvmByYDOBbr-0QZJBKM" version="24.2.1" type="device">
  <diagram name="Page-1" id="7cjvnhSPmGXTdPWzctIV">
    <mxGraphModel dx="792" dy="1138" grid="0" gridSize="10" guides="1" tooltips="1" connect="1" arrows="1" fold="1" page="1" pageScale="1" pageWidth="1100" pageHeight="3000" background="#0F0F0F" math="0" shadow="0">
      <root>
        <mxCell id="0" />
        <mxCell id="1" parent="0" />
        <mxCell id="Nk8tsfsQ3YF20mGUh-xN-1" value="&lt;font face=&quot;Courier New&quot; style=&quot;font-size: 25px;&quot;&gt;Set 1&lt;/font&gt;&lt;div style=&quot;font-size: 25px;&quot;&gt;&lt;font face=&quot;Courier New&quot; style=&quot;font-size: 25px;&quot;&gt;Counter = 0&lt;/font&gt;&lt;/div&gt;&lt;div style=&quot;font-size: 25px;&quot;&gt;&lt;font face=&quot;Courier New&quot; style=&quot;font-size: 25px;&quot;&gt;Timer = 0&lt;/font&gt;&lt;/div&gt;" style="ellipse;whiteSpace=wrap;html=1;labelBackgroundColor=none;fillColor=#182E3E;strokeColor=#FFFFFF;fontColor=#FFFFFF;" parent="1" vertex="1">
          <mxGeometry x="20" y="190" width="180" height="180" as="geometry" />
        </mxCell>
        <mxCell id="pi6UHciYbDetr_I8iCAq-1" value="" style="endArrow=classic;html=1;rounded=0;exitX=1;exitY=0.5;exitDx=0;exitDy=0;labelBackgroundColor=none;strokeColor=#23445D;fontColor=default;" parent="1" source="Nk8tsfsQ3YF20mGUh-xN-1" edge="1">
          <mxGeometry relative="1" as="geometry">
            <mxPoint x="360" y="580" as="sourcePoint" />
            <mxPoint x="330" y="280" as="targetPoint" />
          </mxGeometry>
        </mxCell>
        <mxCell id="pi6UHciYbDetr_I8iCAq-3" value="&lt;font face=&quot;Courier New&quot; style=&quot;font-size: 25px;&quot;&gt;Set 1&lt;/font&gt;&lt;div style=&quot;font-size: 25px;&quot;&gt;&lt;font face=&quot;Courier New&quot; style=&quot;font-size: 25px;&quot;&gt;Counter = 0&lt;/font&gt;&lt;/div&gt;&lt;div style=&quot;font-size: 25px;&quot;&gt;&lt;font face=&quot;Courier New&quot; style=&quot;font-size: 25px;&quot;&gt;Timer += 1&lt;/font&gt;&lt;/div&gt;" style="ellipse;whiteSpace=wrap;html=1;labelBackgroundColor=none;fillColor=#182E3E;strokeColor=#FFFFFF;fontColor=#FFFFFF;" parent="1" vertex="1">
          <mxGeometry x="330" y="190" width="180" height="180" as="geometry" />
        </mxCell>
        <mxCell id="pi6UHciYbDetr_I8iCAq-4" value="" style="endArrow=classic;html=1;rounded=0;exitX=1;exitY=0.5;exitDx=0;exitDy=0;labelBackgroundColor=none;strokeColor=#23445D;fontColor=default;" parent="1" source="pi6UHciYbDetr_I8iCAq-3" edge="1">
          <mxGeometry relative="1" as="geometry">
            <mxPoint x="670" y="580" as="sourcePoint" />
            <mxPoint x="640" y="280" as="targetPoint" />
          </mxGeometry>
        </mxCell>
        <mxCell id="pi6UHciYbDetr_I8iCAq-8" value="" style="curved=1;endArrow=classic;html=1;rounded=0;entryX=1;entryY=0;entryDx=0;entryDy=0;exitX=0;exitY=0;exitDx=0;exitDy=0;labelBackgroundColor=none;strokeColor=#23445D;fontColor=default;" parent="1" source="pi6UHciYbDetr_I8iCAq-3" target="pi6UHciYbDetr_I8iCAq-3" edge="1">
          <mxGeometry width="50" height="50" relative="1" as="geometry">
            <mxPoint x="370" y="170" as="sourcePoint" />
            <mxPoint x="420" y="120" as="targetPoint" />
            <Array as="points">
              <mxPoint x="360" y="170" />
              <mxPoint x="430" y="150" />
              <mxPoint x="480" y="170" />
            </Array>
          </mxGeometry>
        </mxCell>
        <mxCell id="pi6UHciYbDetr_I8iCAq-9" value="&lt;font color=&quot;#fafafa&quot; face=&quot;Courier New&quot; style=&quot;font-size: 20px;&quot;&gt;Timer != 10&lt;/font&gt;" style="text;html=1;align=center;verticalAlign=middle;whiteSpace=wrap;rounded=0;labelBackgroundColor=none;fontColor=#b9ccd9;" parent="1" vertex="1">
          <mxGeometry x="350" y="128" width="140" height="30" as="geometry" />
        </mxCell>
        <mxCell id="pi6UHciYbDetr_I8iCAq-10" value="&lt;font style=&quot;font-size: 20px;&quot; face=&quot;Courier New&quot;&gt;Timer = 10&lt;/font&gt;" style="text;html=1;align=center;verticalAlign=middle;whiteSpace=wrap;rounded=0;labelBackgroundColor=none;fontColor=#FFFFFF;" parent="1" vertex="1">
          <mxGeometry x="510" y="250" width="130" height="30" as="geometry" />
        </mxCell>
        <mxCell id="pi6UHciYbDetr_I8iCAq-11" value="&lt;font face=&quot;Courier New&quot; style=&quot;font-size: 25px;&quot;&gt;Set 2&lt;/font&gt;&lt;div style=&quot;font-size: 25px;&quot;&gt;&lt;font face=&quot;Courier New&quot; style=&quot;font-size: 25px;&quot;&gt;Counter = 1&lt;/font&gt;&lt;/div&gt;&lt;div style=&quot;font-size: 25px;&quot;&gt;&lt;font face=&quot;Courier New&quot; style=&quot;font-size: 25px;&quot;&gt;Timer = 0&lt;/font&gt;&lt;/div&gt;" style="ellipse;whiteSpace=wrap;html=1;labelBackgroundColor=none;fillColor=#182E3E;strokeColor=#FFFFFF;fontColor=#FFFFFF;" parent="1" vertex="1">
          <mxGeometry x="640" y="190" width="180" height="180" as="geometry" />
        </mxCell>
        <mxCell id="pi6UHciYbDetr_I8iCAq-12" value="" style="endArrow=classic;html=1;rounded=0;exitX=1;exitY=0.5;exitDx=0;exitDy=0;labelBackgroundColor=none;strokeColor=#23445D;fontColor=default;" parent="1" source="pi6UHciYbDetr_I8iCAq-11" edge="1">
          <mxGeometry relative="1" as="geometry">
            <mxPoint x="980" y="580" as="sourcePoint" />
            <mxPoint x="950" y="280" as="targetPoint" />
          </mxGeometry>
        </mxCell>
        <mxCell id="pi6UHciYbDetr_I8iCAq-17" value="&lt;font face=&quot;Courier New&quot; style=&quot;font-size: 25px;&quot;&gt;Set 2&lt;/font&gt;&lt;div style=&quot;font-size: 25px;&quot;&gt;&lt;font face=&quot;Courier New&quot; style=&quot;font-size: 25px;&quot;&gt;Counter = 0&lt;/font&gt;&lt;/div&gt;&lt;div style=&quot;font-size: 25px;&quot;&gt;&lt;font face=&quot;Courier New&quot; style=&quot;font-size: 25px;&quot;&gt;Timer += 1&lt;/font&gt;&lt;/div&gt;" style="ellipse;whiteSpace=wrap;html=1;labelBackgroundColor=none;fillColor=#182E3E;strokeColor=#FFFFFF;fontColor=#FFFFFF;" parent="1" vertex="1">
          <mxGeometry x="950" y="190" width="180" height="180" as="geometry" />
        </mxCell>
        <mxCell id="pi6UHciYbDetr_I8iCAq-18" value="" style="endArrow=classic;html=1;rounded=0;exitX=1;exitY=0.5;exitDx=0;exitDy=0;labelBackgroundColor=none;strokeColor=#23445D;fontColor=default;" parent="1" source="pi6UHciYbDetr_I8iCAq-17" edge="1">
          <mxGeometry relative="1" as="geometry">
            <mxPoint x="1290" y="580" as="sourcePoint" />
            <mxPoint x="1260" y="280" as="targetPoint" />
          </mxGeometry>
        </mxCell>
        <mxCell id="pi6UHciYbDetr_I8iCAq-19" value="" style="curved=1;endArrow=classic;html=1;rounded=0;entryX=1;entryY=0;entryDx=0;entryDy=0;exitX=0;exitY=0;exitDx=0;exitDy=0;labelBackgroundColor=none;strokeColor=#23445D;fontColor=default;" parent="1" source="pi6UHciYbDetr_I8iCAq-17" target="pi6UHciYbDetr_I8iCAq-17" edge="1">
          <mxGeometry width="50" height="50" relative="1" as="geometry">
            <mxPoint x="990" y="170" as="sourcePoint" />
            <mxPoint x="1040" y="120" as="targetPoint" />
            <Array as="points">
              <mxPoint x="980" y="170" />
              <mxPoint x="1050" y="150" />
              <mxPoint x="1100" y="170" />
            </Array>
          </mxGeometry>
        </mxCell>
        <mxCell id="pi6UHciYbDetr_I8iCAq-20" value="&lt;font style=&quot;font-size: 20px;&quot; face=&quot;Courier New&quot;&gt;Timer != 10&lt;/font&gt;" style="text;html=1;align=center;verticalAlign=middle;whiteSpace=wrap;rounded=0;labelBackgroundColor=none;fontColor=#FFFFFF;" parent="1" vertex="1">
          <mxGeometry x="969" y="123" width="142" height="30" as="geometry" />
        </mxCell>
        <mxCell id="pi6UHciYbDetr_I8iCAq-21" value="&lt;font style=&quot;font-size: 20px;&quot; face=&quot;Courier New&quot;&gt;Timer = 10&lt;/font&gt;" style="text;html=1;align=center;verticalAlign=middle;whiteSpace=wrap;rounded=0;labelBackgroundColor=none;fontColor=#FFFFFF;" parent="1" vertex="1">
          <mxGeometry x="1130" y="250" width="130" height="30" as="geometry" />
        </mxCell>
        <mxCell id="pi6UHciYbDetr_I8iCAq-22" value="&lt;font face=&quot;Courier New&quot; style=&quot;font-size: 25px;&quot;&gt;Set 3&lt;/font&gt;&lt;div style=&quot;font-size: 25px;&quot;&gt;&lt;font face=&quot;Courier New&quot; style=&quot;font-size: 25px;&quot;&gt;Counter = 2&lt;/font&gt;&lt;/div&gt;&lt;div style=&quot;font-size: 25px;&quot;&gt;&lt;font face=&quot;Courier New&quot; style=&quot;font-size: 25px;&quot;&gt;Timer = 0&lt;/font&gt;&lt;/div&gt;" style="ellipse;whiteSpace=wrap;html=1;labelBackgroundColor=none;fillColor=#182E3E;strokeColor=#FFFFFF;fontColor=#FFFFFF;" parent="1" vertex="1">
          <mxGeometry x="1260" y="190" width="180" height="180" as="geometry" />
        </mxCell>
        <mxCell id="pi6UHciYbDetr_I8iCAq-23" value="" style="endArrow=classic;html=1;rounded=0;exitX=1;exitY=0.5;exitDx=0;exitDy=0;labelBackgroundColor=none;strokeColor=#23445D;fontColor=default;" parent="1" source="pi6UHciYbDetr_I8iCAq-22" edge="1">
          <mxGeometry relative="1" as="geometry">
            <mxPoint x="1600" y="580" as="sourcePoint" />
            <mxPoint x="1570" y="280" as="targetPoint" />
          </mxGeometry>
        </mxCell>
        <mxCell id="pi6UHciYbDetr_I8iCAq-35" value="&lt;font face=&quot;Courier New&quot; style=&quot;font-size: 25px;&quot;&gt;Set 3&lt;/font&gt;&lt;div style=&quot;font-size: 25px;&quot;&gt;&lt;font face=&quot;Courier New&quot; style=&quot;font-size: 25px;&quot;&gt;Counter = 2&lt;/font&gt;&lt;/div&gt;&lt;div style=&quot;font-size: 25px;&quot;&gt;&lt;font face=&quot;Courier New&quot; style=&quot;font-size: 25px;&quot;&gt;Timer += 1&lt;/font&gt;&lt;/div&gt;" style="ellipse;whiteSpace=wrap;html=1;labelBackgroundColor=none;fillColor=#182E3E;strokeColor=#FFFFFF;fontColor=#FFFFFF;" parent="1" vertex="1">
          <mxGeometry x="1570" y="190" width="180" height="180" as="geometry" />
        </mxCell>
        <mxCell id="pi6UHciYbDetr_I8iCAq-36" value="" style="endArrow=classic;html=1;rounded=0;exitX=1;exitY=0.5;exitDx=0;exitDy=0;labelBackgroundColor=none;strokeColor=#23445D;fontColor=default;" parent="1" source="pi6UHciYbDetr_I8iCAq-35" edge="1">
          <mxGeometry relative="1" as="geometry">
            <mxPoint x="1910" y="580" as="sourcePoint" />
            <mxPoint x="1880" y="280" as="targetPoint" />
          </mxGeometry>
        </mxCell>
        <mxCell id="pi6UHciYbDetr_I8iCAq-37" value="" style="curved=1;endArrow=classic;html=1;rounded=0;entryX=1;entryY=0;entryDx=0;entryDy=0;exitX=0;exitY=0;exitDx=0;exitDy=0;labelBackgroundColor=none;strokeColor=#23445D;fontColor=default;" parent="1" source="pi6UHciYbDetr_I8iCAq-35" target="pi6UHciYbDetr_I8iCAq-35" edge="1">
          <mxGeometry width="50" height="50" relative="1" as="geometry">
            <mxPoint x="1610" y="170" as="sourcePoint" />
            <mxPoint x="1660" y="120" as="targetPoint" />
            <Array as="points">
              <mxPoint x="1600" y="170" />
              <mxPoint x="1670" y="150" />
              <mxPoint x="1720" y="170" />
            </Array>
          </mxGeometry>
        </mxCell>
        <mxCell id="pi6UHciYbDetr_I8iCAq-38" value="&lt;font style=&quot;font-size: 20px;&quot; face=&quot;Courier New&quot;&gt;Timer != 10&lt;/font&gt;" style="text;html=1;align=center;verticalAlign=middle;whiteSpace=wrap;rounded=0;labelBackgroundColor=none;fontColor=#FFFFFF;" parent="1" vertex="1">
          <mxGeometry x="1587" y="130" width="146" height="30" as="geometry" />
        </mxCell>
        <mxCell id="pi6UHciYbDetr_I8iCAq-39" value="&lt;font style=&quot;font-size: 20px;&quot; face=&quot;Courier New&quot;&gt;Timer = 10&lt;/font&gt;" style="text;html=1;align=center;verticalAlign=middle;whiteSpace=wrap;rounded=0;labelBackgroundColor=none;fontColor=#FFFFFF;" parent="1" vertex="1">
          <mxGeometry x="1750" y="250" width="130" height="30" as="geometry" />
        </mxCell>
        <mxCell id="pi6UHciYbDetr_I8iCAq-40" value="&lt;font face=&quot;Courier New&quot; style=&quot;font-size: 25px;&quot;&gt;Set 1&lt;/font&gt;&lt;div style=&quot;font-size: 25px;&quot;&gt;&lt;font face=&quot;Courier New&quot; style=&quot;font-size: 25px;&quot;&gt;Counter = 3&lt;/font&gt;&lt;/div&gt;&lt;div style=&quot;font-size: 25px;&quot;&gt;&lt;font face=&quot;Courier New&quot; style=&quot;font-size: 25px;&quot;&gt;Timer = 0&lt;/font&gt;&lt;/div&gt;" style="ellipse;whiteSpace=wrap;html=1;labelBackgroundColor=none;fillColor=#182E3E;strokeColor=#FFFFFF;fontColor=#FFFFFF;" parent="1" vertex="1">
          <mxGeometry x="1880" y="190" width="180" height="180" as="geometry" />
        </mxCell>
        <mxCell id="pi6UHciYbDetr_I8iCAq-42" value="" style="curved=1;endArrow=classic;html=1;rounded=0;exitX=0.5;exitY=1;exitDx=0;exitDy=0;entryX=0;entryY=1;entryDx=0;entryDy=0;labelBackgroundColor=none;strokeColor=#23445D;fontColor=default;" parent="1" source="pi6UHciYbDetr_I8iCAq-40" target="Nk8tsfsQ3YF20mGUh-xN-1" edge="1">
          <mxGeometry width="50" height="50" relative="1" as="geometry">
            <mxPoint x="1679" y="494" as="sourcePoint" />
            <mxPoint x="1629" y="444" as="targetPoint" />
            <Array as="points">
              <mxPoint x="1629" y="494" />
              <mxPoint x="827" y="645" />
              <mxPoint x="-76" y="533" />
            </Array>
          </mxGeometry>
        </mxCell>
        <mxCell id="pi6UHciYbDetr_I8iCAq-43" value="&lt;font face=&quot;Courier New&quot; style=&quot;font-size: 22px;&quot;&gt;Counter = 3&lt;/font&gt;" style="text;html=1;align=center;verticalAlign=middle;whiteSpace=wrap;rounded=0;labelBackgroundColor=none;fontColor=#FFFFFF;" parent="1" vertex="1">
          <mxGeometry x="961" y="555" width="158" height="38" as="geometry" />
        </mxCell>
      </root>
    </mxGraphModel>
  </diagram>
</mxfile>
